<mxfile host="app.diagrams.net" modified="2022-09-27T02:59:39.349Z" agent="5.0 (Windows NT 10.0; Win64; x64) AppleWebKit/537.36 (KHTML, like Gecko) Chrome/105.0.0.0 Safari/537.36" etag="cDcOvOMXGIZCNVmeWnEL" version="20.3.6" type="github">
  <diagram id="Sn3NqzvYnHhoxN-BO4FH" name="第 1 页">
    <mxGraphModel dx="1094" dy="1827" grid="0" gridSize="10" guides="1" tooltips="1" connect="1" arrows="1" fold="1" page="1" pageScale="1" pageWidth="827" pageHeight="1169" math="0" shadow="0">
      <root>
        <mxCell id="0" />
        <mxCell id="1" parent="0" />
        <mxCell id="ZRvVDtTBW8opCcVsUrqt-46" style="edgeStyle=orthogonalEdgeStyle;rounded=0;orthogonalLoop=1;jettySize=auto;html=1;" parent="1" source="ZRvVDtTBW8opCcVsUrqt-43" edge="1">
          <mxGeometry relative="1" as="geometry">
            <mxPoint x="369" y="-127" as="targetPoint" />
          </mxGeometry>
        </mxCell>
        <mxCell id="ZRvVDtTBW8opCcVsUrqt-43" value="0x1000000(16M)" style="text;html=1;strokeColor=none;fillColor=none;align=center;verticalAlign=middle;whiteSpace=wrap;rounded=0;" parent="1" vertex="1">
          <mxGeometry x="218" y="-142" width="97" height="30" as="geometry" />
        </mxCell>
        <mxCell id="ZRvVDtTBW8opCcVsUrqt-47" value="" style="shape=table;startSize=0;container=1;collapsible=0;childLayout=tableLayout;" parent="1" vertex="1">
          <mxGeometry x="369" y="436" width="202" height="160" as="geometry" />
        </mxCell>
        <mxCell id="ZRvVDtTBW8opCcVsUrqt-48" value="" style="shape=tableRow;horizontal=0;startSize=0;swimlaneHead=0;swimlaneBody=0;top=0;left=0;bottom=0;right=0;collapsible=0;dropTarget=0;fillColor=none;points=[[0,0.5],[1,0.5]];portConstraint=eastwest;" parent="ZRvVDtTBW8opCcVsUrqt-47" vertex="1">
          <mxGeometry width="202" height="40" as="geometry" />
        </mxCell>
        <mxCell id="ZRvVDtTBW8opCcVsUrqt-49" value="页目录项3 pg4(0x4000)" style="shape=partialRectangle;html=1;whiteSpace=wrap;connectable=0;overflow=hidden;fillColor=none;top=0;left=0;bottom=0;right=0;pointerEvents=1;" parent="ZRvVDtTBW8opCcVsUrqt-48" vertex="1">
          <mxGeometry width="202" height="40" as="geometry">
            <mxRectangle width="202" height="40" as="alternateBounds" />
          </mxGeometry>
        </mxCell>
        <mxCell id="ZRvVDtTBW8opCcVsUrqt-50" value="" style="shape=tableRow;horizontal=0;startSize=0;swimlaneHead=0;swimlaneBody=0;top=0;left=0;bottom=0;right=0;collapsible=0;dropTarget=0;fillColor=none;points=[[0,0.5],[1,0.5]];portConstraint=eastwest;" parent="ZRvVDtTBW8opCcVsUrqt-47" vertex="1">
          <mxGeometry y="40" width="202" height="40" as="geometry" />
        </mxCell>
        <mxCell id="ZRvVDtTBW8opCcVsUrqt-51" value="页目录项2 pg2(0x3000)" style="shape=partialRectangle;html=1;whiteSpace=wrap;connectable=0;overflow=hidden;fillColor=none;top=0;left=0;bottom=0;right=0;pointerEvents=1;" parent="ZRvVDtTBW8opCcVsUrqt-50" vertex="1">
          <mxGeometry width="202" height="40" as="geometry">
            <mxRectangle width="202" height="40" as="alternateBounds" />
          </mxGeometry>
        </mxCell>
        <mxCell id="ZRvVDtTBW8opCcVsUrqt-52" value="" style="shape=tableRow;horizontal=0;startSize=0;swimlaneHead=0;swimlaneBody=0;top=0;left=0;bottom=0;right=0;collapsible=0;dropTarget=0;fillColor=none;points=[[0,0.5],[1,0.5]];portConstraint=eastwest;" parent="ZRvVDtTBW8opCcVsUrqt-47" vertex="1">
          <mxGeometry y="80" width="202" height="40" as="geometry" />
        </mxCell>
        <mxCell id="ZRvVDtTBW8opCcVsUrqt-53" value="页目录项1 pg1(0x2000)" style="shape=partialRectangle;html=1;whiteSpace=wrap;connectable=0;overflow=hidden;fillColor=none;top=0;left=0;bottom=0;right=0;pointerEvents=1;" parent="ZRvVDtTBW8opCcVsUrqt-52" vertex="1">
          <mxGeometry width="202" height="40" as="geometry">
            <mxRectangle width="202" height="40" as="alternateBounds" />
          </mxGeometry>
        </mxCell>
        <mxCell id="ZRvVDtTBW8opCcVsUrqt-54" value="" style="shape=tableRow;horizontal=0;startSize=0;swimlaneHead=0;swimlaneBody=0;top=0;left=0;bottom=0;right=0;collapsible=0;dropTarget=0;fillColor=none;points=[[0,0.5],[1,0.5]];portConstraint=eastwest;" parent="ZRvVDtTBW8opCcVsUrqt-47" vertex="1">
          <mxGeometry y="120" width="202" height="40" as="geometry" />
        </mxCell>
        <mxCell id="ZRvVDtTBW8opCcVsUrqt-55" value="页目录项0 pg0(0x1000)" style="shape=partialRectangle;html=1;whiteSpace=wrap;connectable=0;overflow=hidden;fillColor=none;top=0;left=0;bottom=0;right=0;pointerEvents=1;" parent="ZRvVDtTBW8opCcVsUrqt-54" vertex="1">
          <mxGeometry width="202" height="40" as="geometry">
            <mxRectangle width="202" height="40" as="alternateBounds" />
          </mxGeometry>
        </mxCell>
        <mxCell id="ZRvVDtTBW8opCcVsUrqt-56" value="" style="shape=curlyBracket;whiteSpace=wrap;html=1;rounded=1;flipH=1;size=0.5;" parent="1" vertex="1">
          <mxGeometry x="576" y="556" width="20" height="40" as="geometry" />
        </mxCell>
        <mxCell id="ZRvVDtTBW8opCcVsUrqt-57" value="4" style="text;html=1;strokeColor=none;fillColor=none;align=center;verticalAlign=middle;whiteSpace=wrap;rounded=0;" parent="1" vertex="1">
          <mxGeometry x="571" y="561" width="60" height="30" as="geometry" />
        </mxCell>
        <mxCell id="ZRvVDtTBW8opCcVsUrqt-59" value="" style="shape=curlyBracket;whiteSpace=wrap;html=1;rounded=1;flipH=1;size=0.5;" parent="1" vertex="1">
          <mxGeometry x="576" y="516" width="20" height="40" as="geometry" />
        </mxCell>
        <mxCell id="ZRvVDtTBW8opCcVsUrqt-60" value="4" style="text;html=1;strokeColor=none;fillColor=none;align=center;verticalAlign=middle;whiteSpace=wrap;rounded=0;" parent="1" vertex="1">
          <mxGeometry x="571" y="521" width="60" height="30" as="geometry" />
        </mxCell>
        <mxCell id="ZRvVDtTBW8opCcVsUrqt-61" value="" style="shape=curlyBracket;whiteSpace=wrap;html=1;rounded=1;flipH=1;size=0.5;" parent="1" vertex="1">
          <mxGeometry x="576" y="476" width="20" height="40" as="geometry" />
        </mxCell>
        <mxCell id="ZRvVDtTBW8opCcVsUrqt-62" value="4" style="text;html=1;strokeColor=none;fillColor=none;align=center;verticalAlign=middle;whiteSpace=wrap;rounded=0;" parent="1" vertex="1">
          <mxGeometry x="571" y="481" width="60" height="30" as="geometry" />
        </mxCell>
        <mxCell id="ZRvVDtTBW8opCcVsUrqt-65" value="" style="shape=curlyBracket;whiteSpace=wrap;html=1;rounded=1;flipH=1;size=0.5;" parent="1" vertex="1">
          <mxGeometry x="576" y="436" width="20" height="40" as="geometry" />
        </mxCell>
        <mxCell id="ZRvVDtTBW8opCcVsUrqt-66" value="4" style="text;html=1;strokeColor=none;fillColor=none;align=center;verticalAlign=middle;whiteSpace=wrap;rounded=0;" parent="1" vertex="1">
          <mxGeometry x="571" y="441" width="60" height="30" as="geometry" />
        </mxCell>
        <mxCell id="ZRvVDtTBW8opCcVsUrqt-75" value="16" style="text;html=1;strokeColor=none;fillColor=none;align=center;verticalAlign=middle;whiteSpace=wrap;rounded=0;" parent="1" vertex="1">
          <mxGeometry x="324" y="423" width="60" height="30" as="geometry" />
        </mxCell>
        <mxCell id="ZRvVDtTBW8opCcVsUrqt-78" value="" style="shape=curlyBracket;whiteSpace=wrap;html=1;rounded=1;flipH=1;rotation=-180;" parent="1" vertex="1">
          <mxGeometry x="282" y="437.5" width="59" height="157" as="geometry" />
        </mxCell>
        <mxCell id="ZRvVDtTBW8opCcVsUrqt-79" value="页目录表0" style="text;html=1;align=center;verticalAlign=middle;resizable=0;points=[];autosize=1;strokeColor=none;fillColor=none;" parent="1" vertex="1">
          <mxGeometry x="215" y="503" width="73" height="26" as="geometry" />
        </mxCell>
        <mxCell id="ZRvVDtTBW8opCcVsUrqt-81" value="" style="shape=table;startSize=0;container=1;collapsible=0;childLayout=tableLayout;" parent="1" vertex="1">
          <mxGeometry x="369" y="3" width="202" height="383" as="geometry" />
        </mxCell>
        <mxCell id="ZRvVDtTBW8opCcVsUrqt-84" value="" style="shape=tableRow;horizontal=0;startSize=0;swimlaneHead=0;swimlaneBody=0;top=0;left=0;bottom=0;right=0;collapsible=0;dropTarget=0;fillColor=none;points=[[0,0.5],[1,0.5]];portConstraint=eastwest;" parent="ZRvVDtTBW8opCcVsUrqt-81" vertex="1">
          <mxGeometry width="202" height="96" as="geometry" />
        </mxCell>
        <mxCell id="ZRvVDtTBW8opCcVsUrqt-85" value="" style="shape=partialRectangle;html=1;whiteSpace=wrap;connectable=0;overflow=hidden;fillColor=none;top=0;left=0;bottom=0;right=0;pointerEvents=1;" parent="ZRvVDtTBW8opCcVsUrqt-84" vertex="1">
          <mxGeometry width="202" height="96" as="geometry">
            <mxRectangle width="202" height="96" as="alternateBounds" />
          </mxGeometry>
        </mxCell>
        <mxCell id="ZRvVDtTBW8opCcVsUrqt-86" value="" style="shape=tableRow;horizontal=0;startSize=0;swimlaneHead=0;swimlaneBody=0;top=0;left=0;bottom=0;right=0;collapsible=0;dropTarget=0;fillColor=none;points=[[0,0.5],[1,0.5]];portConstraint=eastwest;" parent="ZRvVDtTBW8opCcVsUrqt-81" vertex="1">
          <mxGeometry y="96" width="202" height="96" as="geometry" />
        </mxCell>
        <mxCell id="ZRvVDtTBW8opCcVsUrqt-87" value="" style="shape=partialRectangle;html=1;whiteSpace=wrap;connectable=0;overflow=hidden;fillColor=none;top=0;left=0;bottom=0;right=0;pointerEvents=1;" parent="ZRvVDtTBW8opCcVsUrqt-86" vertex="1">
          <mxGeometry width="202" height="96" as="geometry">
            <mxRectangle width="202" height="96" as="alternateBounds" />
          </mxGeometry>
        </mxCell>
        <mxCell id="ZRvVDtTBW8opCcVsUrqt-88" value="" style="shape=tableRow;horizontal=0;startSize=0;swimlaneHead=0;swimlaneBody=0;top=0;left=0;bottom=0;right=0;collapsible=0;dropTarget=0;fillColor=none;points=[[0,0.5],[1,0.5]];portConstraint=eastwest;" parent="ZRvVDtTBW8opCcVsUrqt-81" vertex="1">
          <mxGeometry y="192" width="202" height="96" as="geometry" />
        </mxCell>
        <mxCell id="ZRvVDtTBW8opCcVsUrqt-89" value="" style="shape=partialRectangle;html=1;whiteSpace=wrap;connectable=0;overflow=hidden;fillColor=none;top=0;left=0;bottom=0;right=0;pointerEvents=1;" parent="ZRvVDtTBW8opCcVsUrqt-88" vertex="1">
          <mxGeometry width="202" height="96" as="geometry">
            <mxRectangle width="202" height="96" as="alternateBounds" />
          </mxGeometry>
        </mxCell>
        <mxCell id="ZRvVDtTBW8opCcVsUrqt-82" value="" style="shape=tableRow;horizontal=0;startSize=0;swimlaneHead=0;swimlaneBody=0;top=0;left=0;bottom=0;right=0;collapsible=0;dropTarget=0;fillColor=none;points=[[0,0.5],[1,0.5]];portConstraint=eastwest;" parent="ZRvVDtTBW8opCcVsUrqt-81" vertex="1">
          <mxGeometry y="288" width="202" height="95" as="geometry" />
        </mxCell>
        <mxCell id="ZRvVDtTBW8opCcVsUrqt-83" value="" style="shape=partialRectangle;html=1;whiteSpace=wrap;connectable=0;overflow=hidden;fillColor=none;top=0;left=0;bottom=0;right=0;pointerEvents=1;" parent="ZRvVDtTBW8opCcVsUrqt-82" vertex="1">
          <mxGeometry width="202" height="95" as="geometry">
            <mxRectangle width="202" height="95" as="alternateBounds" />
          </mxGeometry>
        </mxCell>
        <mxCell id="ZRvVDtTBW8opCcVsUrqt-90" value="页表0" style="text;html=1;align=center;verticalAlign=middle;resizable=0;points=[];autosize=1;strokeColor=none;fillColor=none;" parent="1" vertex="1">
          <mxGeometry x="287" y="327" width="49" height="26" as="geometry" />
        </mxCell>
        <mxCell id="ZRvVDtTBW8opCcVsUrqt-92" value="页表1" style="text;html=1;align=center;verticalAlign=middle;resizable=0;points=[];autosize=1;strokeColor=none;fillColor=none;" parent="1" vertex="1">
          <mxGeometry x="287" y="227" width="49" height="26" as="geometry" />
        </mxCell>
        <mxCell id="ZRvVDtTBW8opCcVsUrqt-93" value="页表2" style="text;html=1;align=center;verticalAlign=middle;resizable=0;points=[];autosize=1;strokeColor=none;fillColor=none;" parent="1" vertex="1">
          <mxGeometry x="287" y="140" width="49" height="26" as="geometry" />
        </mxCell>
        <mxCell id="ZRvVDtTBW8opCcVsUrqt-94" value="页表3" style="text;html=1;align=center;verticalAlign=middle;resizable=0;points=[];autosize=1;strokeColor=none;fillColor=none;" parent="1" vertex="1">
          <mxGeometry x="287" y="39" width="49" height="26" as="geometry" />
        </mxCell>
        <mxCell id="ZRvVDtTBW8opCcVsUrqt-96" value="0x1000" style="text;html=1;strokeColor=none;fillColor=none;align=center;verticalAlign=middle;whiteSpace=wrap;rounded=0;" parent="1" vertex="1">
          <mxGeometry x="315" y="370" width="60" height="30" as="geometry" />
        </mxCell>
        <mxCell id="ZRvVDtTBW8opCcVsUrqt-97" value="0x2000" style="text;html=1;strokeColor=none;fillColor=none;align=center;verticalAlign=middle;whiteSpace=wrap;rounded=0;" parent="1" vertex="1">
          <mxGeometry x="313" y="275" width="60" height="30" as="geometry" />
        </mxCell>
        <mxCell id="ZRvVDtTBW8opCcVsUrqt-98" value="0x3000" style="text;html=1;strokeColor=none;fillColor=none;align=center;verticalAlign=middle;whiteSpace=wrap;rounded=0;" parent="1" vertex="1">
          <mxGeometry x="313" y="179.5" width="60" height="30" as="geometry" />
        </mxCell>
        <mxCell id="ZRvVDtTBW8opCcVsUrqt-99" value="0x4000" style="text;html=1;strokeColor=none;fillColor=none;align=center;verticalAlign=middle;whiteSpace=wrap;rounded=0;" parent="1" vertex="1">
          <mxGeometry x="313" y="84" width="60" height="30" as="geometry" />
        </mxCell>
        <mxCell id="ZRvVDtTBW8opCcVsUrqt-101" value="" style="shape=curlyBracket;whiteSpace=wrap;html=1;rounded=1;flipH=1;size=0.5;" parent="1" vertex="1">
          <mxGeometry x="581" y="292" width="20" height="90" as="geometry" />
        </mxCell>
        <mxCell id="ZRvVDtTBW8opCcVsUrqt-104" value="1024*4" style="text;html=1;align=center;verticalAlign=middle;resizable=0;points=[];autosize=1;strokeColor=none;fillColor=none;" parent="1" vertex="1">
          <mxGeometry x="596" y="322" width="56" height="26" as="geometry" />
        </mxCell>
        <mxCell id="ZRvVDtTBW8opCcVsUrqt-106" value="页表项0（存放的地址为0）" style="rounded=0;whiteSpace=wrap;html=1;fontSize=10;" parent="1" vertex="1">
          <mxGeometry x="369" y="357" width="202" height="28" as="geometry" />
        </mxCell>
        <mxCell id="ZRvVDtTBW8opCcVsUrqt-107" value="页表项1023（存放物理页框占用4字节）" style="rounded=0;whiteSpace=wrap;html=1;fontSize=10;" parent="1" vertex="1">
          <mxGeometry x="369" y="292" width="202" height="28" as="geometry" />
        </mxCell>
        <mxCell id="ZRvVDtTBW8opCcVsUrqt-108" value="" style="shape=table;startSize=0;container=1;collapsible=0;childLayout=tableLayout;fontSize=10;" parent="1" vertex="1">
          <mxGeometry x="369" y="-126" width="205" height="80" as="geometry" />
        </mxCell>
        <mxCell id="ZRvVDtTBW8opCcVsUrqt-109" value="" style="shape=tableRow;horizontal=0;startSize=0;swimlaneHead=0;swimlaneBody=0;top=0;left=0;bottom=0;right=0;collapsible=0;dropTarget=0;fillColor=none;points=[[0,0.5],[1,0.5]];portConstraint=eastwest;fontSize=10;" parent="ZRvVDtTBW8opCcVsUrqt-108" vertex="1">
          <mxGeometry width="205" height="40" as="geometry" />
        </mxCell>
        <mxCell id="ZRvVDtTBW8opCcVsUrqt-110" value="" style="shape=partialRectangle;html=1;whiteSpace=wrap;connectable=0;overflow=hidden;fillColor=none;top=0;left=0;bottom=0;right=0;pointerEvents=1;fontSize=10;" parent="ZRvVDtTBW8opCcVsUrqt-109" vertex="1">
          <mxGeometry width="205" height="40" as="geometry">
            <mxRectangle width="205" height="40" as="alternateBounds" />
          </mxGeometry>
        </mxCell>
        <mxCell id="ZRvVDtTBW8opCcVsUrqt-111" value="" style="shape=tableRow;horizontal=0;startSize=0;swimlaneHead=0;swimlaneBody=0;top=0;left=0;bottom=0;right=0;collapsible=0;dropTarget=0;fillColor=none;points=[[0,0.5],[1,0.5]];portConstraint=eastwest;fontSize=10;" parent="ZRvVDtTBW8opCcVsUrqt-108" vertex="1">
          <mxGeometry y="40" width="205" height="40" as="geometry" />
        </mxCell>
        <mxCell id="ZRvVDtTBW8opCcVsUrqt-112" value="" style="shape=partialRectangle;html=1;whiteSpace=wrap;connectable=0;overflow=hidden;fillColor=none;top=0;left=0;bottom=0;right=0;pointerEvents=1;fontSize=10;" parent="ZRvVDtTBW8opCcVsUrqt-111" vertex="1">
          <mxGeometry width="205" height="40" as="geometry">
            <mxRectangle width="205" height="40" as="alternateBounds" />
          </mxGeometry>
        </mxCell>
        <mxCell id="ZRvVDtTBW8opCcVsUrqt-114" style="edgeStyle=orthogonalEdgeStyle;rounded=0;orthogonalLoop=1;jettySize=auto;html=1;fontSize=10;" parent="1" source="ZRvVDtTBW8opCcVsUrqt-113" edge="1">
          <mxGeometry relative="1" as="geometry">
            <mxPoint x="363" y="-86" as="targetPoint" />
          </mxGeometry>
        </mxCell>
        <mxCell id="ZRvVDtTBW8opCcVsUrqt-113" value="0xFFF000(页框)" style="text;html=1;strokeColor=none;fillColor=none;align=center;verticalAlign=middle;whiteSpace=wrap;rounded=0;" parent="1" vertex="1">
          <mxGeometry x="211" y="-101" width="111" height="30" as="geometry" />
        </mxCell>
        <mxCell id="ZRvVDtTBW8opCcVsUrqt-123" style="edgeStyle=orthogonalEdgeStyle;rounded=1;orthogonalLoop=1;jettySize=auto;html=1;exitX=1;exitY=0.5;exitDx=0;exitDy=0;fontSize=10;entryX=1.008;entryY=0.058;entryDx=0;entryDy=0;entryPerimeter=0;strokeColor=#0000CC;strokeWidth=2;" parent="1" source="ZRvVDtTBW8opCcVsUrqt-115" target="ZRvVDtTBW8opCcVsUrqt-111" edge="1">
          <mxGeometry relative="1" as="geometry">
            <mxPoint x="657.0344827586207" y="-90.58620689655163" as="targetPoint" />
            <Array as="points">
              <mxPoint x="649" y="17" />
              <mxPoint x="649" y="-84" />
            </Array>
          </mxGeometry>
        </mxCell>
        <mxCell id="r41DqsQB2cySxRdWrJAx-5" value="映射页" style="edgeLabel;html=1;align=center;verticalAlign=middle;resizable=0;points=[];" vertex="1" connectable="0" parent="ZRvVDtTBW8opCcVsUrqt-123">
          <mxGeometry x="0.1029" y="1" relative="1" as="geometry">
            <mxPoint as="offset" />
          </mxGeometry>
        </mxCell>
        <mxCell id="ZRvVDtTBW8opCcVsUrqt-115" value="页表项4095（存放的地址为0xFFF000）" style="rounded=0;whiteSpace=wrap;html=1;fontSize=10;" parent="1" vertex="1">
          <mxGeometry x="369" y="3" width="202" height="28" as="geometry" />
        </mxCell>
        <mxCell id="ZRvVDtTBW8opCcVsUrqt-116" value="页4095" style="text;html=1;strokeColor=none;fillColor=none;align=center;verticalAlign=middle;whiteSpace=wrap;rounded=0;fontSize=10;" parent="1" vertex="1">
          <mxGeometry x="313" y="-121" width="60" height="30" as="geometry" />
        </mxCell>
        <mxCell id="ZRvVDtTBW8opCcVsUrqt-117" value="页4094" style="text;html=1;strokeColor=none;fillColor=none;align=center;verticalAlign=middle;whiteSpace=wrap;rounded=0;fontSize=10;" parent="1" vertex="1">
          <mxGeometry x="312" y="-78" width="60" height="30" as="geometry" />
        </mxCell>
        <mxCell id="ZRvVDtTBW8opCcVsUrqt-118" value="" style="endArrow=none;dashed=1;html=1;dashPattern=1 3;strokeWidth=2;rounded=0;fontSize=10;exitX=0.5;exitY=0;exitDx=0;exitDy=0;entryX=0.5;entryY=1;entryDx=0;entryDy=0;" parent="1" source="ZRvVDtTBW8opCcVsUrqt-106" target="ZRvVDtTBW8opCcVsUrqt-107" edge="1">
          <mxGeometry width="50" height="50" relative="1" as="geometry">
            <mxPoint x="427" y="370" as="sourcePoint" />
            <mxPoint x="477" y="320" as="targetPoint" />
          </mxGeometry>
        </mxCell>
        <mxCell id="ZRvVDtTBW8opCcVsUrqt-119" value="" style="endArrow=none;dashed=1;html=1;dashPattern=1 3;strokeWidth=2;rounded=0;fontSize=10;entryX=0.49;entryY=1.021;entryDx=0;entryDy=0;entryPerimeter=0;exitX=0.49;exitY=0;exitDx=0;exitDy=0;exitPerimeter=0;" parent="1" source="ZRvVDtTBW8opCcVsUrqt-48" target="ZRvVDtTBW8opCcVsUrqt-82" edge="1">
          <mxGeometry width="50" height="50" relative="1" as="geometry">
            <mxPoint x="438" y="440" as="sourcePoint" />
            <mxPoint x="488" y="390" as="targetPoint" />
          </mxGeometry>
        </mxCell>
        <mxCell id="ZRvVDtTBW8opCcVsUrqt-120" value="" style="endArrow=none;dashed=1;html=1;dashPattern=1 3;strokeWidth=2;rounded=0;fontSize=10;entryX=0.473;entryY=1.075;entryDx=0;entryDy=0;entryPerimeter=0;exitX=0.48;exitY=-0.01;exitDx=0;exitDy=0;exitPerimeter=0;" parent="1" source="ZRvVDtTBW8opCcVsUrqt-84" target="ZRvVDtTBW8opCcVsUrqt-111" edge="1">
          <mxGeometry width="50" height="50" relative="1" as="geometry">
            <mxPoint x="446" y="3" as="sourcePoint" />
            <mxPoint x="496" y="-47" as="targetPoint" />
          </mxGeometry>
        </mxCell>
        <mxCell id="ZRvVDtTBW8opCcVsUrqt-124" value="" style="endArrow=classic;startArrow=classic;html=1;rounded=0;fontSize=10;entryX=0.5;entryY=1;entryDx=0;entryDy=0;exitX=0.497;exitY=-0.021;exitDx=0;exitDy=0;exitPerimeter=0;dashed=1;" parent="1" source="ZRvVDtTBW8opCcVsUrqt-86" target="ZRvVDtTBW8opCcVsUrqt-115" edge="1">
          <mxGeometry width="50" height="50" relative="1" as="geometry">
            <mxPoint x="440" y="86" as="sourcePoint" />
            <mxPoint x="490" y="36" as="targetPoint" />
          </mxGeometry>
        </mxCell>
        <mxCell id="r41DqsQB2cySxRdWrJAx-3" value="0" style="text;html=1;strokeColor=none;fillColor=none;align=center;verticalAlign=middle;whiteSpace=wrap;rounded=0;" vertex="1" parent="1">
          <mxGeometry x="322" y="580" width="60" height="30" as="geometry" />
        </mxCell>
        <mxCell id="r41DqsQB2cySxRdWrJAx-4" value="" style="edgeStyle=segmentEdgeStyle;endArrow=classic;html=1;rounded=0;exitX=1.005;exitY=0.863;exitDx=0;exitDy=0;exitPerimeter=0;entryX=0.965;entryY=1;entryDx=0;entryDy=0;entryPerimeter=0;strokeColor=#0000CC;strokeWidth=2;" edge="1" parent="1" source="ZRvVDtTBW8opCcVsUrqt-82" target="ZRvVDtTBW8opCcVsUrqt-54">
          <mxGeometry width="50" height="50" relative="1" as="geometry">
            <mxPoint x="736" y="505" as="sourcePoint" />
            <mxPoint x="786" y="455" as="targetPoint" />
            <Array as="points">
              <mxPoint x="679" y="373" />
              <mxPoint x="679" y="596" />
            </Array>
          </mxGeometry>
        </mxCell>
        <mxCell id="r41DqsQB2cySxRdWrJAx-6" value="映射页" style="edgeLabel;html=1;align=center;verticalAlign=middle;resizable=0;points=[];" vertex="1" connectable="0" parent="r41DqsQB2cySxRdWrJAx-4">
          <mxGeometry x="0.0874" y="-4" relative="1" as="geometry">
            <mxPoint as="offset" />
          </mxGeometry>
        </mxCell>
        <mxCell id="r41DqsQB2cySxRdWrJAx-7" value="" style="edgeStyle=segmentEdgeStyle;endArrow=classic;html=1;rounded=1;strokeColor=#FF3333;strokeWidth=2;exitX=0;exitY=0.5;exitDx=0;exitDy=0;entryX=-0.061;entryY=0.5;entryDx=0;entryDy=0;entryPerimeter=0;" edge="1" parent="1" source="ZRvVDtTBW8opCcVsUrqt-54" target="ZRvVDtTBW8opCcVsUrqt-90">
          <mxGeometry width="50" height="50" relative="1" as="geometry">
            <mxPoint x="60" y="523" as="sourcePoint" />
            <mxPoint x="110" y="473" as="targetPoint" />
            <Array as="points">
              <mxPoint x="159" y="576" />
              <mxPoint x="159" y="340" />
            </Array>
          </mxGeometry>
        </mxCell>
        <mxCell id="r41DqsQB2cySxRdWrJAx-8" value="映射页表" style="edgeLabel;html=1;align=center;verticalAlign=middle;resizable=0;points=[];" vertex="1" connectable="0" parent="r41DqsQB2cySxRdWrJAx-7">
          <mxGeometry x="0.0707" relative="1" as="geometry">
            <mxPoint as="offset" />
          </mxGeometry>
        </mxCell>
      </root>
    </mxGraphModel>
  </diagram>
</mxfile>
